<?xml version="1.0" encoding="UTF-8" standalone="no"?>
<!-- Created with Inkscape (http://www.inkscape.org/) -->

<svg
   xmlns:dc="http://purl.org/dc/elements/1.1/"
   xmlns:cc="http://creativecommons.org/ns#"
   xmlns:rdf="http://www.w3.org/1999/02/22-rdf-syntax-ns#"
   xmlns:svg="http://www.w3.org/2000/svg"
   xmlns="http://www.w3.org/2000/svg"
   xmlns:sodipodi="http://sodipodi.sourceforge.net/DTD/sodipodi-0.dtd"
   xmlns:inkscape="http://www.inkscape.org/namespaces/inkscape"
   width="720"
   height="400"
   viewBox="0 0 720 400.00001"
   id="svg2"
   version="1.1"
   inkscape:version="0.91 r13725"
   sodipodi:docname="legend.svg"
   inkscape:export-filename="KA-C4-map.png"
   inkscape:export-xdpi="90"
   inkscape:export-ydpi="90">
  <defs
     id="defs4" />
  <sodipodi:namedview
     id="base"
     pagecolor="#ffffff"
     bordercolor="#666666"
     borderopacity="1.0"
     inkscape:pageopacity="0.0"
     inkscape:pageshadow="2"
     inkscape:zoom="1.9946304"
     inkscape:cx="360"
     inkscape:cy="165.81127"
     inkscape:document-units="px"
     inkscape:current-layer="layer1"
     showgrid="false"
     units="px"
     inkscape:window-width="2204"
     inkscape:window-height="1513"
     inkscape:window-x="2127"
     inkscape:window-y="275"
     inkscape:window-maximized="0" />
  <metadata
     id="metadata7">
    <rdf:RDF>
      <cc:Work
         rdf:about="">
        <dc:format>image/svg+xml</dc:format>
        <dc:type
           rdf:resource="http://purl.org/dc/dcmitype/StillImage" />
        <dc:title></dc:title>
      </cc:Work>
    </rdf:RDF>
  </metadata>
  <g
     inkscape:label="Layer 1"
     inkscape:groupmode="layer"
     id="layer1"
     transform="translate(0,-652.36216)">
    <g
       id="g4172"
       transform="matrix(0.53333333,0,0,0.53333324,-6,507.76905)">
      <path
         style="opacity:1;fill:#000080;fill-opacity:1;fill-rule:nonzero;stroke:none;stroke-width:2;stroke-linecap:round;stroke-linejoin:round;stroke-miterlimit:4;stroke-dasharray:none;stroke-dashoffset:0;stroke-opacity:1"
         d="m 180,492.36216 a 53.658658,53.776951 0 0 0 -53.6586,53.77813 53.658658,53.776951 0 0 0 19.40703,41.37171 l -43.05423,0 C 79.04102,587.512 60,606.59607 60,630.30092 l 0,59.27228 c 0,23.7047 19.04102,42.789 42.6942,42.789 l 154.61159,0 C 280.95898,732.3622 300,713.2779 300,689.5732 l 0,-59.27228 C 300,606.59607 280.95898,587.512 257.30579,587.512 l -43.09599,0 A 53.658658,53.776951 0 0 0 233.6586,546.14029 53.658658,53.776951 0 0 0 180,492.36216 Z"
         id="path4172"
         inkscape:connector-curvature="0" />
      <text
         sodipodi:linespacing="125%"
         id="text4180"
         y="676.70203"
         x="179.74365"
         style="font-style:normal;font-variant:normal;font-weight:bold;font-stretch:normal;font-size:28.12500191px;line-height:125%;font-family:Verdana;-inkscape-font-specification:'Verdana, Bold';text-align:center;letter-spacing:0px;word-spacing:0px;writing-mode:lr-tb;text-anchor:middle;fill:#ffffff;fill-opacity:1;stroke:none;stroke-width:1px;stroke-linecap:butt;stroke-linejoin:miter;stroke-opacity:1"
         xml:space="preserve"><tspan
           y="676.70203"
           x="179.74365"
           id="tspan4182"
           sodipodi:role="line">Person</tspan></text>
    </g>
    <text
       xml:space="preserve"
       style="font-style:normal;font-variant:normal;font-weight:normal;font-stretch:normal;font-size:40px;line-height:125%;font-family:Verdana;-inkscape-font-specification:'Verdana, Normal';text-align:center;letter-spacing:0px;word-spacing:0px;writing-mode:lr-tb;text-anchor:middle;fill:#000000;fill-opacity:1;stroke:none;stroke-width:1px;stroke-linecap:butt;stroke-linejoin:miter;stroke-opacity:1"
       x="207.32919"
       y="957.12561"
       id="text4188"
       sodipodi:linespacing="125%"><tspan
         sodipodi:role="line"
         id="tspan4190"
         x="207.32919"
         y="957.12561" /></text>
    <rect
       style="opacity:1;fill:none;fill-opacity:1;fill-rule:nonzero;stroke:#000000;stroke-width:1.58276403;stroke-linecap:round;stroke-linejoin:round;stroke-miterlimit:4;stroke-dasharray:1.58276398, 9.49658391000000002;stroke-dashoffset:0;stroke-opacity:1"
       id="rect4250"
       width="190.41724"
       height="94.417236"
       x="500.79138"
       y="811.15356"
       ry="10.776418" />
    <flowRoot
       xml:space="preserve"
       id="flowRoot4164"
       style="font-style:normal;font-variant:normal;font-weight:normal;font-stretch:normal;font-size:40px;line-height:125%;font-family:Verdana;-inkscape-font-specification:'Verdana, Normal';text-align:center;letter-spacing:0px;word-spacing:0px;writing-mode:lr-tb;text-anchor:middle;fill:#000000;fill-opacity:1;stroke:none;stroke-width:1px;stroke-linecap:butt;stroke-linejoin:miter;stroke-opacity:1"
       transform="translate(0,332.36216)"><flowRegion
         id="flowRegion4166"><rect
           id="rect4168"
           width="746.10706"
           height="592.31897"
           x="337.12488"
           y="119.62225" /></flowRegion><flowPara
         id="flowPara4170" /></flowRoot>    <rect
       style="opacity:1;fill:#000080;fill-opacity:1;fill-rule:nonzero;stroke:none;stroke-width:7;stroke-linecap:round;stroke-linejoin:round;stroke-miterlimit:4;stroke-dasharray:7, 42;stroke-dashoffset:0;stroke-opacity:1"
       id="rect4241"
       width="128"
       height="86"
       x="179.38266"
       y="946.375"
       ry="4.8550053" />
    <text
       sodipodi:linespacing="125%"
       id="text4180-3-6"
       y="899.3446"
       x="558.90576"
       style="font-style:normal;font-variant:normal;font-weight:bold;font-stretch:normal;font-size:11.25px;line-height:125%;font-family:Verdana;-inkscape-font-specification:'Verdana, Bold';text-align:center;letter-spacing:0px;word-spacing:0px;writing-mode:lr-tb;text-anchor:middle;fill:#000000;fill-opacity:1;stroke:none;stroke-width:1px;stroke-linecap:butt;stroke-linejoin:miter;stroke-opacity:1"
       xml:space="preserve"><tspan
         y="899.3446"
         x="558.90576"
         id="tspan4182-87-3"
         sodipodi:role="line">Software System</tspan></text>
    <rect
       ry="4.8550053"
       y="820.36218"
       x="333.38266"
       height="86"
       width="128"
       id="rect4279"
       style="opacity:1;fill:#000080;fill-opacity:1;fill-rule:nonzero;stroke:none;stroke-width:7;stroke-linecap:round;stroke-linejoin:round;stroke-miterlimit:4;stroke-dasharray:7, 42;stroke-dashoffset:0;stroke-opacity:1" />
    <text
       xml:space="preserve"
       style="font-style:normal;font-variant:normal;font-weight:bold;font-stretch:normal;font-size:15px;line-height:125%;font-family:Verdana;-inkscape-font-specification:'Verdana, Bold';text-align:center;letter-spacing:0px;word-spacing:0px;writing-mode:lr-tb;text-anchor:middle;fill:#ffffff;fill-opacity:1;stroke:none;stroke-width:1px;stroke-linecap:butt;stroke-linejoin:miter;stroke-opacity:1"
       x="397.01645"
       y="860.54761"
       id="text4281"
       sodipodi:linespacing="125%"><tspan
         sodipodi:role="line"
         id="tspan4283"
         x="397.01645"
         y="860.54761">Mobile App</tspan><tspan
         sodipodi:role="line"
         x="397.01645"
         y="875.41992"
         id="tspan4365"
         style="font-style:normal;font-variant:normal;font-weight:bold;font-stretch:normal;font-size:11.25px;line-height:125%;font-family:Verdana;-inkscape-font-specification:'Verdana, Bold';text-align:center;writing-mode:lr-tb;text-anchor:middle">[Container]</tspan></text>
    <rect
       ry="4.8550053"
       y="820.36218"
       x="179.38266"
       height="86"
       width="128"
       id="rect4299"
       style="opacity:1;fill:#555555;fill-opacity:1;fill-rule:nonzero;stroke:none;stroke-width:7;stroke-linecap:round;stroke-linejoin:round;stroke-miterlimit:4;stroke-dasharray:7, 42;stroke-dashoffset:0;stroke-opacity:1" />
    <text
       xml:space="preserve"
       style="font-style:normal;font-variant:normal;font-weight:bold;font-stretch:normal;font-size:15px;line-height:125%;font-family:Verdana;-inkscape-font-specification:'Verdana, Bold';text-align:center;letter-spacing:0px;word-spacing:0px;writing-mode:lr-tb;text-anchor:middle;fill:#ffffff;fill-opacity:1;stroke:none;stroke-width:1px;stroke-linecap:butt;stroke-linejoin:miter;stroke-opacity:1"
       x="243.1373"
       y="859.55725"
       id="text4301"
       sodipodi:linespacing="125%"><tspan
         sodipodi:role="line"
         id="tspan4303"
         x="243.1373"
         y="859.55725">Existing</tspan><tspan
         sodipodi:role="line"
         x="243.1373"
         y="878.30725"
         id="tspan4311">Container</tspan></text>
    <flowRoot
       xml:space="preserve"
       id="flowRoot4313"
       style="fill:black;stroke:none;stroke-opacity:1;stroke-width:1px;stroke-linejoin:miter;stroke-linecap:butt;fill-opacity:1;font-family:Verdana;font-style:normal;font-weight:normal;font-size:40px;line-height:125%;letter-spacing:0px;word-spacing:0px;-inkscape-font-specification:'Verdana, Normal';font-stretch:normal;font-variant:normal;text-anchor:middle;text-align:center;writing-mode:lr"><flowRegion
         id="flowRegion4315"><rect
           id="rect4317"
           width="221.15071"
           height="98.659912"
           x="75.782249"
           y="236.99667" /></flowRegion><flowPara
         id="flowPara4319" /></flowRoot>    <rect
       ry="4.8550053"
       y="945.64105"
       x="332.68808"
       height="86"
       width="128"
       id="rect4279-3"
       style="opacity:1;fill:#000080;fill-opacity:1;fill-rule:nonzero;stroke:none;stroke-width:7;stroke-linecap:round;stroke-linejoin:round;stroke-miterlimit:4;stroke-dasharray:7, 42;stroke-dashoffset:0;stroke-opacity:1" />
    <text
       xml:space="preserve"
       style="font-style:normal;font-variant:normal;font-weight:bold;font-stretch:normal;font-size:15px;line-height:125%;font-family:Verdana;-inkscape-font-specification:'Verdana, Bold';text-align:center;letter-spacing:0px;word-spacing:0px;writing-mode:lr-tb;text-anchor:middle;fill:#ffffff;fill-opacity:1;stroke:none;stroke-width:1px;stroke-linecap:butt;stroke-linejoin:miter;stroke-opacity:1"
       x="396.77597"
       y="985.82648"
       id="text4281-9"
       sodipodi:linespacing="125%"><tspan
         sodipodi:role="line"
         id="tspan4283-6"
         x="396.77597"
         y="985.82648">Web App</tspan><tspan
         sodipodi:role="line"
         x="396.77597"
         y="1000.6988"
         id="tspan4367"
         style="font-style:normal;font-variant:normal;font-weight:bold;font-stretch:normal;font-size:11.25px;line-height:125%;font-family:Verdana;-inkscape-font-specification:'Verdana, Bold';text-align:center;writing-mode:lr-tb;text-anchor:middle">[Container]</tspan></text>
    <g
       id="g4456">
      <path
         sodipodi:nodetypes="scssssssss"
         inkscape:connector-curvature="0"
         id="rect4305"
         d="m 483.77139,960.55408 59.14499,-6.72187 59.14499,6.72187 c 2.65204,0.30141 4.85501,1.45551 4.85501,3.26348 l 0,51.28114 c 0,1.808 -2.16533,3.2635 -4.85501,3.2635 l -118.28998,0 c -2.68968,0 -4.85501,-1.4555 -4.85501,-3.2635 l 0,-51.28114 c 0,-1.80797 2.24009,-2.96629 4.85501,-3.26348 z"
         style="opacity:1;fill:#000080;fill-opacity:1;fill-rule:nonzero;stroke:none;stroke-width:7;stroke-linecap:round;stroke-linejoin:round;stroke-miterlimit:4;stroke-dasharray:7, 42;stroke-dashoffset:0;stroke-opacity:1" />
      <ellipse
         ry="16"
         rx="64"
         cy="1015.364"
         cx="542.91638"
         id="path4437"
         style="opacity:1;fill:#000080;fill-opacity:1;fill-rule:nonzero;stroke:none;stroke-width:7;stroke-linecap:round;stroke-linejoin:round;stroke-miterlimit:4;stroke-dasharray:7, 42;stroke-dashoffset:0;stroke-opacity:1" />
      <ellipse
         style="opacity:1;fill:#000080;fill-opacity:1;fill-rule:nonzero;stroke:none;stroke-width:7;stroke-linecap:round;stroke-linejoin:round;stroke-miterlimit:4;stroke-dasharray:7, 42;stroke-dashoffset:0;stroke-opacity:1"
         id="ellipse4454"
         cx="542.91638"
         cy="962.60406"
         rx="63"
         ry="15.625923" />
    </g>
    <ellipse
       style="opacity:1;fill:#666699;fill-opacity:1;fill-rule:nonzero;stroke:none;stroke-width:7;stroke-linecap:round;stroke-linejoin:round;stroke-miterlimit:4;stroke-dasharray:7, 42;stroke-dashoffset:0;stroke-opacity:1"
       id="path4437-4"
       cx="542.91638"
       cy="962.5343"
       rx="64"
       ry="15.682124" />
    <text
       sodipodi:linespacing="125%"
       id="text4307"
       y="997.28271"
       x="542.5282"
       style="font-style:normal;font-variant:normal;font-weight:bold;font-stretch:normal;font-size:15px;line-height:125%;font-family:Verdana;-inkscape-font-specification:'Verdana, Bold';text-align:center;letter-spacing:0px;word-spacing:0px;writing-mode:lr-tb;text-anchor:middle;fill:#ffffff;fill-opacity:1;stroke:none;stroke-width:1px;stroke-linecap:butt;stroke-linejoin:miter;stroke-opacity:1"
       xml:space="preserve"><tspan
         y="997.28271"
         x="542.5282"
         id="tspan4309"
         sodipodi:role="line">Database</tspan><tspan
         y="1012.155"
         x="542.5282"
         sodipodi:role="line"
         id="tspan4363"
         style="font-style:normal;font-variant:normal;font-weight:bold;font-stretch:normal;font-size:11.25px;line-height:125%;font-family:Verdana;-inkscape-font-specification:'Verdana, Bold';text-align:center;writing-mode:lr-tb;text-anchor:middle">[Container]</tspan></text>
    <g
       style="overflow:visible"
       id="g4481"
       transform="translate(180.85962,-71.877167)">
      <g
         id="Suit_group">
        <path
           d="m 288.134,55.272 c 9.771,10.075 11.243,26.902 11.243,45.486 0,17.28 -3.552,35.581 -7.41,49.319 -7.135,25.413 -18.712,48.389 -32.197,67.208 -1.948,2.718 -3.62,5.61 -6.134,7.667 -0.151,-13.443 -0.511,-26.902 -0.511,-39.865 0,-6.868 0.333,-13.535 -0.257,-19.932 -2.797,-30.415 -8.846,-59.484 -14.309,-86.885 2.32,-2.959 4.963,-5.6 7.921,-7.922 7.482,7.169 13.233,16.069 17.633,26.322 -0.902,-9.6 -5.063,-17.699 -9.2,-26.066 C 250,60.668 246.166,48.92 235.747,45.05 c 8.348,-1.687 15.376,-5.197 23.512,-9.455 4.83,-2.529 10.642,-5.846 15.588,-8.944 1.398,-0.876 4.543,-2.571 4.599,-3.833 0.076,-1.689 -1.952,-2.747 -3.582,-3.482 l 9.461,4.25 c 1.016,3.839 1.994,8.341 3.065,13.032 1.506,6.596 4.363,14.649 -0.256,18.654 z M 237.794,31.25 c -0.917,-0.051 -1.856,-0.079 -2.78,-0.089 -0.924,0.01 -1.861,0.038 -2.778,0.089 -5.914,0.328 -13.169,1.711 -12.521,7.333 2.37,1.537 12.398,5.187 15.3,5.187 2.902,0 12.928,-3.65 15.302,-5.187 0.643,-5.622 -6.61,-7.005 -12.523,-7.333 z m -55.9,24.022 c -9.771,10.075 -11.244,26.902 -11.244,45.486 0,17.28 3.552,35.581 7.411,49.319 7.135,25.413 18.713,48.389 32.198,67.208 1.946,2.718 3.62,5.61 6.133,7.667 0.15,-13.443 0.511,-26.902 0.511,-39.865 0,-6.868 -0.332,-13.535 0.256,-19.932 2.797,-30.415 8.847,-59.484 14.311,-86.885 -2.321,-2.959 -4.963,-5.6 -7.922,-7.922 -7.482,7.169 -13.233,16.069 -17.633,26.322 0.901,-9.6 5.062,-17.699 9.2,-26.066 4.912,-9.936 8.747,-21.684 19.165,-25.554 -8.346,-1.687 -15.374,-5.197 -23.51,-9.455 -4.832,-2.529 -10.643,-5.846 -15.589,-8.944 -1.397,-0.876 -4.544,-2.571 -4.6,-3.833 -0.074,-1.689 1.952,-2.747 3.583,-3.482 l -9.46,4.25 c -1.017,3.839 -1.995,8.341 -3.066,13.032 -1.507,6.596 -4.366,14.649 0.256,18.654 z m 92.184,-36.798 c -0.745,-0.75 -3.286,-2.996 -4.822,-3.833 C 260.442,10.284 248.846,4.93 235.27,4.93 l -0.51,0 c -13.579,0 -25.174,5.354 -33.988,9.711 -1.537,0.838 -4.077,3.084 -4.823,3.833 -0.237,0.476 -3.402,2.612 -3.322,4.6 1.765,1.898 4.459,2.866 6.645,4.344 7.782,-8.107 20.207,-14.301 35.743,-14.31 15.536,0.009 27.959,6.202 35.742,14.31 2.188,-1.478 4.881,-2.446 6.646,-4.344 0.078,-1.988 -3.086,-4.125 -3.325,-4.6 z"
           id="White_shirt"
           inkscape:connector-curvature="0"
           style="fill:#ffffff" />
      </g>
    </g>
    <path
       style="opacity:0.33000004;fill:#000000;fill-opacity:1;fill-rule:nonzero;stroke:none;stroke-width:7;stroke-linecap:round;stroke-linejoin:round;stroke-miterlimit:4;stroke-dasharray:7, 42;stroke-dashoffset:0;stroke-opacity:1"
       d="m 456.52734,820.36216 c 2.68968,0 4.85547,2.16579 4.85547,4.85547 l 0,76.28906 c 0,2.68967 -2.16579,4.85547 -4.85547,4.85547 l -118.28906,0 c -2.68968,0 -4.85547,-2.1658 -4.85547,-4.85547 l 0,-76.28906 c 0,-2.68968 2.16579,-4.85547 4.85547,-4.85547 l 118.28906,0 z m -4.61914,3.35938 -109.04883,0 c -2.47954,0 -4.47656,1.99701 -4.47656,4.47656 l 0,70.32812 c 0,2.47954 1.99702,4.47656 4.47656,4.47656 l 109.04883,0 c 2.47954,0 4.47461,-1.99702 4.47461,-4.47656 l 0,-70.32812 c 0,-2.47955 -1.99507,-4.47656 -4.47461,-4.47656 z"
       id="rect4488"
       inkscape:connector-curvature="0" />
    <circle
       style="opacity:0.6;fill:#ffffff;fill-opacity:1;fill-rule:nonzero;stroke:none;stroke-width:7;stroke-linecap:round;stroke-linejoin:round;stroke-miterlimit:4;stroke-dasharray:7, 42;stroke-dashoffset:0;stroke-opacity:1"
       id="path4495"
       cx="-458.80301"
       cy="863.36218"
       r="1.8797566"
       transform="scale(-1,1)" />
    <rect
       style="opacity:0.6;fill:#ffffff;fill-opacity:1;fill-rule:nonzero;stroke:none;stroke-width:7;stroke-linecap:round;stroke-linejoin:round;stroke-miterlimit:4;stroke-dasharray:7, 42;stroke-dashoffset:0;stroke-opacity:1"
       id="rect4497"
       width="3"
       height="15"
       x="-337.53882"
       y="855.86218"
       ry="1.25"
       transform="scale(-1,1)" />
    <path
       style="opacity:0.33000004;fill:#000000;fill-opacity:1;fill-rule:nonzero;stroke:none;stroke-width:7;stroke-linecap:round;stroke-linejoin:round;stroke-miterlimit:4;stroke-dasharray:7, 42;stroke-dashoffset:0;stroke-opacity:1"
       d="M 337.54297 293.2793 C 334.85329 293.2793 332.6875 295.44509 332.6875 298.13477 L 332.6875 374.42383 C 332.6875 377.11353 334.85329 379.2793 337.54297 379.2793 L 455.83203 379.2793 C 458.52171 379.2793 460.6875 377.11353 460.6875 374.42383 L 460.6875 298.13477 C 460.6875 295.44509 458.52171 293.2793 455.83203 293.2793 L 337.54297 293.2793 z M 344.45312 299.69336 L 448.92188 299.69336 C 451.29732 299.69336 453.21094 301.58257 453.21094 303.92969 L 453.21094 370.50195 C 453.21094 372.84875 451.29731 374.74023 448.92188 374.74023 L 344.45312 374.74023 C 342.0777 374.74023 340.16602 372.84875 340.16602 370.50195 L 340.16602 303.92969 C 340.16602 301.58257 342.0777 299.69336 344.45312 299.69336 z "
       transform="translate(0,652.36216)"
       id="rect4488-9" />
    <g
       id="g4521"
       transform="matrix(0.01302083,0,0,0.01302083,341.15104,945.4507)"
       style="opacity:0.6;fill:#ffffff">
      <polygon
         id="polygon4523"
         points="112,448 208,448 208,320 304,320 304,448 400,448 400,288 448,288 256,64 64,288 112,288 "
         style="fill:#ffffff" />
    </g>
    <path
       style="opacity:0.6;fill:#ffffff;fill-opacity:1;fill-rule:nonzero;stroke:none;stroke-width:7;stroke-linecap:round;stroke-linejoin:round;stroke-miterlimit:4;stroke-dasharray:7, 42;stroke-dashoffset:0;stroke-opacity:1"
       d="m 441.1875,948.86217 0,0.5 c 0,0.6925 -0.5575,1.25 -1.25,1.25 l -86.5,0 c -0.6925,0 -1.25,-0.5575 -1.25,-1.25 l 0,-0.5 c 0,-0.6925 0.5575,-1.25 1.25,-1.25 l 86.5,0 c 0.6925,0 1.25,0.5575 1.25,1.25 z"
       id="rect4536"
       inkscape:connector-curvature="0"
       sodipodi:nodetypes="sssssssss" />
    <g
       id="g4593"
       transform="matrix(4.3183264e-4,0,0,-4.3183264e-4,452.29989,952.57717)"
       style="opacity:0.6;fill:#ffffff;stroke:none">
      <path
         id="path4595"
         d="m -14637.696,14568.601 c -20,-4 -43,-12 -50,-18 -7,-6 -37,-13 -66,-16 -64,-7 -74,-13 -195,-104 -219,-165 -328,-376 -313,-609 6,-101 15,-132 87,-280 26,-55 76,-165 109,-245 34,-79 112,-241 174,-359 63,-118 292,-557 511,-975 764,-1460 1225,-2320.0003 1363,-2538.0003 32,-51 69,-112 81,-137 48,-95 191,-272 257,-320 57,-40 200,-95 301,-114 100,-19 152,-12 324,45 225,74 209,58 576,577 72,102 175,261 229,354 54,92 101,168 105,168 13,0 192,-165 267,-245 306,-328 521,-719 615,-1120 43,-183 59,-331 59,-545 -1,-293 -37,-523 -127,-795 -246,-750 -843,-1348 -1592,-1595 -281,-92 -492,-125 -808,-125 -316,0 -527,33 -808,125 -363,120 -716,338 -987,611 -509,511 -776,1220 -730,1942 32,509 188,933 496,1348 116,156 163,292 164,465.0003 0,218 -95,414 -270,555 -38,30 -249,185 -467,344 -219,159 -540,393 -713,519 -367,268 -398,288 -505,323 -67,21 -99,26 -195,26 -140,1 -220,-19 -373,-93 -128,-62 -178,-112 -319,-310 -613,-868 -973,-1836.0003 -1070,-2875.0003 -19,-204 -16,-776 6,-980 41,-395 99,-707 197,-1050 628,-2216 2554,-3883 4820,-4174 291,-37 431,-46 754,-46 323,0 463,9 754,46 966,124 1899,505 2695.9999,1101 1177.001,880 1981.001,2163 2246.001,3588 71,380 93,638 93,1065 0,376 -11,531 -60,845 -225,1459.0003 -1028,2777.0003 -2259.001,3705.0003 -71,53 -136,100 -142,102 -7,3 -13,9 -13,13 0,5 65,105 145,223 139,206 171,263 200,352 13,39 47,127 68,172 5,12 10,41 12,65 1,24 5,51 10,61 13,31 -3,163 -31,245 -77,232 -240,391 -477,466 -103,33 -137,38 -343,56 -126,10 -343.9999,24 -483.9999,29 -140,6 -298,13 -350,16 -52,3 -324,12 -605,21 -280,8 -548,19 -595,24 -47,6 -134,10 -195,10 -60,0 -157,5 -215,10 -58,6 -316,15 -575,20 -258,6 -549,15 -645,20 -230,13 -1095,21 -1142,11 z"
         inkscape:connector-curvature="0"
         style="fill:#ffffff" />
    </g>
    <rect
       ry="4.8550053"
       y="946.375"
       x="25.38266"
       height="86"
       width="128"
       id="rect4622"
       style="opacity:1;fill:#000080;fill-opacity:1;fill-rule:nonzero;stroke:none;stroke-width:7;stroke-linecap:round;stroke-linejoin:round;stroke-miterlimit:4;stroke-dasharray:7, 42;stroke-dashoffset:0;stroke-opacity:1" />
    <text
       sodipodi:linespacing="125%"
       id="text4180-3"
       y="994.94507"
       x="89.137299"
       style="font-style:normal;font-variant:normal;font-weight:bold;font-stretch:normal;font-size:15px;line-height:125%;font-family:Verdana;-inkscape-font-specification:'Verdana, Bold';text-align:center;letter-spacing:0px;word-spacing:0px;writing-mode:lr-tb;text-anchor:middle;fill:#ffffff;fill-opacity:1;stroke:none;stroke-width:1px;stroke-linecap:butt;stroke-linejoin:miter;stroke-opacity:1"
       xml:space="preserve"><tspan
         y="994.94507"
         x="89.137299"
         id="tspan4182-87"
         sodipodi:role="line">Container</tspan></text>
    <path
       id="path4607"
       d="m 185.38266,960.375 q 0,-4.1532 2.92339,-7.07668 2.9234,-2.92332 7.07661,-2.92332 4.15321,0 7.07661,2.92332 2.92339,2.92348 2.92339,7.07668 0,4.1532 -2.92339,7.07668 -2.9234,2.92332 -7.07661,2.92332 -4.15321,0 -7.07661,-2.92332 -2.92339,-2.92348 -2.92339,-7.07668 z m 1.29032,0.32252 q 0.16129,3.42748 2.58064,5.8468 1.08871,-0.76612 2.25805,-1.25 -0.88709,-2.17744 -0.96773,-4.5968 l -3.87096,0 z m 0,-0.64504 3.87096,0 q 0.0807,-2.1372 0.76613,-4.03228 -1.29032,-0.52428 -2.41936,-1.41132 -2.09676,2.33864 -2.21773,5.4436 z m 2.66128,-5.92748 q 1.04839,0.8064 2.21775,1.29028 0.88709,-2.09668 2.41934,-3.62896 -2.70161,0.44348 -4.63709,2.33868 z m 0.40323,12.86292 q 1.81452,1.57256 4.23386,1.97576 -1.33064,-1.33068 -2.17741,-3.06456 -1.08871,0.40336 -2.05645,1.0888 z m 1.45161,-6.2904 q 0.0807,2.2984 0.92741,4.3952 1.4113,-0.4436 2.94355,-0.52412 l 0,-3.87108 -3.87096,0 z m 0,-0.64504 3.87096,0 0,-3.22588 q -1.61291,-0.0812 -3.14516,-0.6048 -0.64516,1.81452 -0.7258,3.83068 z m 0.96773,-4.43548 q 1.4113,0.48388 2.90323,0.5644 l 0,-4.516 -0.0403,0 q -1.85484,1.57252 -2.86291,3.9516 z m 0.24195,10.04028 q 1.00805,2.0564 2.62096,3.42732 l 0.0403,0 0,-3.87092 q -1.41129,0.0812 -2.66128,0.4436 z m 3.30644,3.42732 0.0403,0 q 1.61291,-1.37092 2.62096,-3.42732 -1.24999,-0.36296 -2.66128,-0.4436 l 0,3.87092 z m 0,-4.516 q 1.53225,0.08 2.94355,0.52412 0.84677,-2.0968 0.92741,-4.3952 l -3.87096,0 0,3.87108 z m 0,-4.51612 3.87096,0 q -0.0807,-2.01616 -0.7258,-3.83068 -1.53227,0.52412 -3.14516,0.6048 l 0,3.22588 z m 0,-3.87108 q 1.49193,-0.08 2.90321,-0.5644 -1.00805,-2.37908 -2.86289,-3.9516 l -0.0403,0 0,4.516 z m 1.08871,12.78228 q 2.41934,-0.4032 4.23386,-1.97576 -0.96774,-0.68544 -2.05645,-1.0888 -0.84677,1.73388 -2.17741,3.06456 z m 0,-17.17736 q 1.53225,1.53228 2.41934,3.62896 1.16936,-0.48388 2.21775,-1.29028 -1.93548,-1.8952 -4.63709,-2.33868 z m 2.45966,13.508 q 1.16936,0.48388 2.25807,1.25 2.41935,-2.41932 2.58064,-5.8468 l -3.87096,0 q -0.0807,2.41936 -0.96775,4.5968 z m 0.20162,-9.27412 q 0.68549,1.89508 0.76613,4.03228 l 3.87096,0 q -0.12093,-3.10496 -2.21773,-5.4436 -1.12904,0.88704 -2.41936,1.41132 z"
       inkscape:connector-curvature="0"
       inkscape:transform-center-x="262.34689"
       inkscape:transform-center-y="511.77028"
       style="opacity:0.6;fill:#ffffff" />
    <text
       xml:space="preserve"
       style="font-style:normal;font-variant:normal;font-weight:bold;font-stretch:normal;font-size:15px;line-height:125%;font-family:Verdana;-inkscape-font-specification:'Verdana, Bold';text-align:center;letter-spacing:0px;word-spacing:0px;writing-mode:lr-tb;text-anchor:middle;fill:#ffffff;fill-opacity:1;stroke:none;stroke-width:1px;stroke-linecap:butt;stroke-linejoin:miter;stroke-opacity:1"
       x="243.44858"
       y="994.96338"
       id="text4624"
       sodipodi:linespacing="125%"><tspan
         sodipodi:role="line"
         id="tspan4626"
         x="243.44858"
         y="994.96338">Web Service</tspan></text>
  </g>
</svg>
